<?xml version="1.0" encoding="UTF-8"?>
<svg id="Layer_2" xmlns="http://www.w3.org/2000/svg" viewBox="0 0 537.25 376.45">
  <defs>
    <style>
      .cls-1 {
        fill: #fff;
      }
    </style>
  </defs>
  <g id="Layer_1-2" data-name="Layer_1">
    <g>
      <path class="cls-1" d="M327.46,236.76l1.78-6.5,16.53-60.36h-51.06l-4.53,18.43-3.67,14.91c-.52-1.57-.97-3.18-1.36-4.83-.66-2.76-1.16-5.52-1.52-8.28h0c-1.39-10.84-.52-21.68,1.76-32.44,1.07-5.05,3.1-13.38,7.66-22.72-.09.02-.19.03-.28.05,1.78-.35,3.56-.7,5.34-1.07,5.86-1.2,11.7-2.47,17.53-3.82,22.78-5.23,45.54-10.59,68.34-15.73,5.86-1.31,11.83-2.1,17.79-2.87.69-.09,1.38-.14,2.06-.14.81,0,1.63.07,2.43.2.27.03.53.09.8.14,1.06.23,2.12.58,3.13,1.04,2.56,1.16,3.09,2.79,1.57,5.18-.73,1.15-1.69,2.17-2.61,3.18-8.12,8.96-16.52,17.67-24.3,26.9-.37.44-.73.88-1.1,1.32-.18.2-.34.42-.52.63-.26.31-.51.62-.77.94-.35.44-.71.89-1.06,1.34-.27.32-.52.66-.78.99-.37.48-.73.95-1.1,1.43-.06.07-.1.14-.16.21-.29.38-.58.77-.85,1.15-.33.44-.67.9-.99,1.34-.01.02-.02.03-.03.06-.33.44-.65.9-.96,1.35-.02.01-.03.03-.04.04-.31.44-.62.89-.93,1.34s-.62.9-.92,1.35c-.01.02-.02.04-.03.07-.23.33-.45.68-.69,1.02-.02.03-.04.07-.07.11-.27.4-.52.8-.79,1.2,0,0-3.4,4.67-4.33,5.95h-6.96c-.12.22-.24.44-.35.66v58.11c6.2-1.62,12.68-3.99,19.62-7.18,14.3-6.56,28.29-15.33,44.02-27.6,9.55-7.45,18.86-15.42,28-24h-69.88c.93-1.28,4.34-5.95,4.35-5.97.13-.17.28-.34.41-.51,1.12-1.44,2.26-2.86,3.42-4.28.18-.22.35-.44.53-.67.26-.3.5-.61.75-.91.24-.3.49-.6.74-.91.49-.59.98-1.18,1.46-1.76.31-.37.61-.73.92-1.09.3-.38.61-.73.92-1.1t.02-.02c.31-.37.62-.73.94-1.1.31-.37.62-.73.94-1.1.08-.1.16-.19.23-.28.29-.33.58-.67.87-1,.51-.58,1.02-1.15,1.53-1.73.44-.51.9-1.02,1.35-1.52.26-.29.52-.59.79-.88.07-.08.13-.14.19-.21l.14-.15c.65-.73,1.33-1.45,2-2.18.06-.06.11-.12.18-.19.39-.42.79-.85,1.19-1.27.24-.26.48-.52.73-.78.54-.58,1.1-1.16,1.64-1.74.32-.33.63-.65.95-.99.62-.64,1.24-1.28,1.86-1.92,5.82-5.9,10.48-12.5,13.87-19.99,3.6-7.96,5.74-16.2,4.56-25.05-1.29-9.5-7.45-15.53-16.97-16.55-2.07-.22-4.15-.32-6.22-.32h-.82c-.55.01-1.1.02-1.64.04l-.83.03c-.54.03-1.09.07-1.63.11-2.73.2-5.45.57-8.15,1.05-12.25,2.24-24.49,4.63-36.64,7.32-22.5,5-44.83,10.76-67.53,14.87-23.36,4.24-46.86,7.46-70.52,9.37-3.12.24-6.24.48-9.37.67-1.42.1-2.83.18-4.25.25-4.57.27-9.15.48-13.72.63-1.02.03-2.04.07-3.05.09-.07.01-.14.01-.21.01-.08,0-.17,0-.24.01-.18,0-.34,0-.52.01-.74.02-1.49.03-2.23.06-1.04.02-2.09.04-3.13.06-.92.02-1.83.03-2.74.04-.13,0-.27.01-.4.01-1.12.01-2.25.02-3.39.03h-5.93c-.35,0-.71,0-1.05-.01h-1.05c-2.3-.02-4.59-.04-6.89-.09-2.28-.04-4.58-.1-6.88-.17-13.74-.42-27.46-1.36-41.07-3.36-17.68-2.61-35.27-5.81-52.86-8.97-18.73-3.37-37.23-7.81-55.64-12.62-.11-.03-.23-.07-.35-.09-.11-.02-.21-.06-.32-.08-.1-.02-.21-.04-.32-.06-.01-.01-.03-.01-.06-.02-.09-.01-.18-.02-.27-.03-.06-.01-.11-.02-.17-.03-.08-.01-.16-.02-.23-.02-.02-.01-.04-.01-.06-.01-.07-.01-.13-.02-.19-.02-.11-.01-.22-.02-.33-.02-.1-.01-.21-.02-.31-.02-.01,0-.03-.01-.04,0h-.08s-.06-.01-.08-.01c-.14,0-.3,0-.45.01-1.57.06-2.34,1.45-1.54,2.82.52.89,1.26,1.69,2.05,2.36,1.63,1.4,3.26,2.84,5.06,3.99,10.81,6.95,21.53,14.06,32.53,20.69,16.4,9.87,33.05,19.32,50.38,27.48,2.63,1.23,5.37,2.57,8.18,3.01,9.72,1.49,19.44,2.98,29.22,3.73l41.69,1.62c26.59-.2,53.03-2.4,79.37-6.03,8.65-1.2,17.27-2.54,25.86-4.04,2.48-.43,4.97-.86,7.44-1.33.63-.11,1.25-.24,1.87-.36-5.72,12.79-9.03,29.52-9.84,40.83-.73,10.24-.04,20.41,1.44,30.53.43,2.91.93,5.8,1.52,8.66.84,4.08,1.87,8.1,3.13,12.04l-2.84,11.55-.09.35c-9.48,41.97-15.57,69.14-18.28,81.52-5.41-30.75-10.83-57.92-16.25-81.52l-16.53-70.79h-49.03l-16.53,70.79c-4.26,19.15-9.67,46.13-16.25,80.94-4.84-23.79-10.93-50.77-18.28-80.94l-17.11-70.79h-55.68l56.57,206.56h59.16l17.41-73.11c5.99-27.27,11.12-52.12,15.37-74.56,4.83,27.85,9.96,52.7,15.38,74.56l17.11,73.11h54.83l26.39-96.36,1.78-6.51c-.09-.04-.19-.08-.28-.12.09.04.19.08.28.12l10.08-36.82ZM292.99,115.64s.06,0,.08.01c0,0,0,0-.01,0-.02,0-.04,0-.07,0-.08,0-.16.02-.25.03-.03,0-.06,0-.1,0,.12-.02.23-.04.34-.04Z"/>
      <path class="cls-1" d="M527.67,286.37c-6.38-9.18-15.18-15.81-26.39-19.87,18.38-8.71,27.56-23.3,27.56-43.81,0-15.86-5.86-28.62-17.56-38.29-3.27-2.71-6.99-5.03-11.13-6.99-9.99,12.02-20.42,23.42-31.21,34.14,1.85.88,3.49,1.97,4.92,3.32,4.16,3.87,6.23,9.09,6.23,15.67,0,6.95-2.07,12.47-6.23,16.52-4.16,4.07-10.01,6.1-17.56,6.1h-36.09c-8.79,6.21-17.44,11.54-26.08,16.1-11.67,6.17-22.22,10.32-32.69,12.82v94.37h100.96c24.55,0,43.17-5.27,55.84-15.8,12.66-10.55,19.01-25.29,19.01-44.24,0-10.83-3.19-20.85-9.58-30.03ZM479.66,331.2c-4.74,4.06-11.46,6.09-20.16,6.09h-49.03v-47h49.03c18.18,0,27.27,7.83,27.27,23.5,0,7.54-2.36,13.34-7.11,17.41Z"/>
      <path class="cls-1" d="M361.44,169.89v.66c.12-.22.23-.44.35-.66h-.35Z"/>
      <path class="cls-1" d="M155.49,212.83c4.96-10.63,9.92-21.27,14.87-31.91,1.01-2.17.95-2.56-1.15-3.66-10.35-5.41-20.73-10.79-31.1-16.16-2-1.04-2.46-.85-3.42,1.2-5.01,10.73-10.02,21.46-15.03,32.2-.21.45-.38.91-.76,1.8.58.5,1.15,1.2,1.87,1.58,10.35,5.42,20.73,10.78,31.08,16.19,2.13,1.11,2.58,1.01,3.63-1.23Z"/>
      <path class="cls-1" d="M391,263.32c6.71-3.54,13.19-7.44,19.46-11.61,2.2-1.45,4.37-2.95,6.52-4.48,8.64-6.13,16.91-12.76,24.95-19.74,4.7-4.08,9.32-8.25,13.83-12.52,1.95-1.84,3.88-3.69,5.8-5.57,11.26-11,21.93-22.56,32.04-34.62,1.35-1.61,2.68-3.23,4.01-4.85,5.01-6.13,9.9-12.4,14.65-18.79,8.13-10.94,14.13-22.81,16.49-36.4,2.77-15.9,2.38-31.74-.7-47.54-3.8-19.55-12.27-36.72-26.17-51.09-5.64-5.83-11.89-10.86-19.46-14.04-3.26-1.36-6.47-2.07-9.62-2.07-.77,0-1.53.04-2.28.13-.5.06-1.01.13-1.51.22-.04.01-.1.02-.16.03-.39.07-.78.16-1.15.26-.63.15-1.25.34-1.87.57-.35.13-.71.27-1.06.41-1.3.54-2.58,1.22-3.85,2.03-3.14,2.01-6.27,4.22-8.86,6.88-13.03,13.35-19.16,29.61-19.49,48.13-.1,5.41.74,10.69,2.84,15.69,5.08,12.07,14.79,17.59,27.31,18.5,2.5.18,4.99.23,7.5.23,4.11,0,8.24-.14,12.37-.14v.04c1.38-.08,2.76-.17,4.14-.24,2.74-.15,5.49-.32,8.22-.32h.69c.43,0,.87.01,1.31.03.22,0,.44.01.68.02.65.03,1.31.07,1.96.13,1.99.18,3.96.49,5.91,1.01,4.89,1.3,9.16,3.54,12.11,7.82,1.61,2.34,1.62,3.19-.07,5.41-4.69,6.14-9.28,12.36-14.15,18.37-11.01,13.62-22.6,26.67-34.89,39.03-1.91,1.92-3.83,3.82-5.77,5.69-10.62,10.31-21.77,20.1-33.53,29.27-4.38,3.42-8.83,6.71-13.36,9.86-1.77,1.24-3.57,2.46-5.38,3.65-8.48,5.58-17.3,10.62-26.61,14.89-5.66,2.58-11.37,4.84-17.17,6.57-.53.16-1.06.31-1.6.47-.53.15-1.06.3-1.61.43-.23.07-.45.12-.69.18-.45.12-.91.23-1.36.34-.2.06-.42.1-.62.15-.64.15-1.29.29-1.93.43-1.12.23-2.24.45-3.36.64-.04.01-.09.01-.13.02-4.55.79-9.16,1.21-13.86,1.21-2.68,0-5.41-.13-8.16-.43l-10.4,37.97c-.24-.07-.49-.14-.73-.22.24.08.49.15.73.23.18.04.35.1.53.15.42.12.84.23,1.26.34.57.15,1.14.3,1.71.42.85.2,1.71.38,2.56.53,3.72.69,7.47,1.01,11.29,1.01.8,0,1.59-.01,2.38-.04.53-.01,1.06-.03,1.6-.07,2.94-.17,5.9-.51,8.88-1.02.79-.13,1.56-.28,2.34-.42,1.99-.39,3.96-.83,5.91-1.33,10.32-2.66,20.1-6.83,29.57-11.84ZM467.04,54.2c-.55.02-1.11.04-1.66.04-1.18,0-2.34-.08-3.48-.26-.32-.03-.62-.09-.93-.15-1.52-.29-2.99-.77-4.41-1.48-3.7-1.84-3.55-2.4-1.72-5.51,2.54-4.31,6.62-6.33,11.46-6.9.83-.09,1.65-.15,2.46-.15,2.05,0,4.06.31,6.01.89.43.13.87.28,1.3.42,1.08.4,2.13.86,3.17,1.41,4.2,2.22,9.47,6.66,11.83,10.08-8.1.54-16.06,1.14-24.02,1.6Z"/>
    </g>
  </g>
</svg>