<svg width="40" height="40" viewBox="0 0 40 40" fill="none" xmlns="http://www.w3.org/2000/svg">
<path opacity="0.05" fill-rule="evenodd" clip-rule="evenodd" d="M32.4317 10.2715C22.2884 13.0378 13.0383 22.288 10.272 32.4312L8.9856 32.0802C11.8762 21.4817 21.4822 11.8757 32.0808 8.98511L32.4317 10.2715Z" fill="#334155"/>
<path opacity="0.1" fill-rule="evenodd" clip-rule="evenodd" d="M31.6819 9.13882C21.4251 12.0144 12.015 21.4246 9.13937 31.6813L7.85553 31.3216C10.8568 20.6165 20.6171 10.8562 31.3221 7.85498L31.6819 9.13882Z" fill="#334155"/>
<path opacity="0.15" fill-rule="evenodd" clip-rule="evenodd" d="M30.7203 8.06825C20.5091 11.0987 11.1141 20.4887 8.07479 30.6988L6.79688 30.3185C9.96469 19.6766 19.6976 9.94879 30.3408 6.79004L30.7203 8.06825Z" fill="#334155"/>
<path opacity="0.2" fill-rule="evenodd" clip-rule="evenodd" d="M29.4581 7.09778C19.4964 10.3376 10.3445 19.4877 7.10128 29.449L5.83344 29.0362C9.20863 18.6695 18.6785 9.20159 29.0456 5.82983L29.4581 7.09778Z" fill="#334155"/>
<path opacity="0.25" fill-rule="evenodd" clip-rule="evenodd" d="M28.0536 6.19645C18.4558 9.63863 9.66377 18.4234 6.20921 28.0195L4.95468 27.568C8.54396 17.5976 17.6308 8.51802 27.6035 4.94141L28.0536 6.19645Z" fill="#334155"/>
<path opacity="0.3" fill-rule="evenodd" clip-rule="evenodd" d="M26.4059 5.41661C17.3334 9.05242 9.06581 17.3165 5.42397 26.388L4.18661 25.8913C7.96403 16.482 16.4994 7.95024 25.9099 4.17896L26.4059 5.41661Z" fill="#334155"/>
<path opacity="0.35" fill-rule="evenodd" clip-rule="evenodd" d="M24.5527 4.76998C16.1636 8.54268 8.56275 16.1388 4.78216 24.5264L3.56659 23.9785C7.48096 15.2941 15.3196 7.4603 24.0059 3.55396L24.5527 4.76998Z" fill="#334155"/>
<path opacity="0.4" fill-rule="evenodd" clip-rule="evenodd" d="M22.419 4.32238C14.9153 8.13656 8.15452 14.8937 4.33452 22.396L3.14633 21.791C7.09431 14.0374 14.0595 7.07584 21.8149 3.13379L22.419 4.32238Z" fill="#334155"/>
<path opacity="0.45" fill-rule="evenodd" clip-rule="evenodd" d="M19.8988 4.17984C13.565 7.85846 7.87631 13.5442 4.1933 19.8767L3.04074 19.2063C6.84007 12.6739 12.6952 6.82174 19.2292 3.02686L19.8988 4.17984Z" fill="#334155"/>
<path opacity="0.5" fill-rule="evenodd" clip-rule="evenodd" d="M16.8108 4.5464C12.0524 7.76176 7.75954 12.055 4.54479 16.8138L3.43994 16.0674C6.75013 11.1674 11.1646 6.75245 16.0643 3.44165L16.8108 4.5464Z" fill="#334155"/>
<path fill-rule="evenodd" clip-rule="evenodd" d="M2.33887 19.9998C2.33887 10.2459 10.2459 2.33887 19.9998 2.33887C29.7536 2.33887 37.6605 10.2459 37.6605 19.9998C37.6605 29.7534 29.7536 37.6606 19.9998 37.6606C10.2459 37.6606 2.33887 29.7534 2.33887 19.9998ZM19.9998 4.87219C11.645 4.87219 4.87221 11.645 4.87221 19.9998C4.87221 28.3545 11.645 35.1273 19.9998 35.1273C28.3544 35.1273 35.1272 28.3545 35.1272 19.9998C35.1272 11.645 28.3544 4.87219 19.9998 4.87219Z" fill="#334155"/>
</svg>
