<svg width="32" height="32" viewBox="0 0 32 32" fill="none" xmlns="http://www.w3.org/2000/svg">
<path fill-rule="evenodd" clip-rule="evenodd" d="M29.5194 0.992249C29.5194 0.444245 29.0751 0 28.5271 0C27.9792 0 27.5349 0.444245 27.5349 0.992249V2.48063H26.0465C25.4985 2.48063 25.0543 2.92486 25.0543 3.47288C25.0543 4.02087 25.4985 4.46513 26.0465 4.46513H27.5349V5.9535C27.5349 6.50149 27.9792 6.94575 28.5271 6.94575C29.0751 6.94575 29.5194 6.50149 29.5194 5.9535V4.46513H31.0078C31.5557 4.46513 32 4.02087 32 3.47288C32 2.92486 31.5557 2.48063 31.0078 2.48063H29.5194V0.992249ZM24.443 7.55707C24.9273 8.04144 24.9273 8.82675 24.443 9.31114L21.9624 11.7918C21.478 12.2761 20.6926 12.2761 20.2084 11.7918C19.7239 11.3074 19.7239 10.5221 20.2084 10.0377L22.6887 7.5571C23.1732 7.0727 23.9586 7.0727 24.443 7.55707ZM19.4817 12.5183C19.966 13.0027 19.966 13.788 19.4817 14.2724L2.11734 31.6366C1.63297 32.1211 0.847659 32.1211 0.363293 31.6366C-0.121098 31.1524 -0.121098 30.3671 0.363293 29.8826L17.7277 12.5183C18.212 12.0339 18.9974 12.0339 19.4817 12.5183ZM28.5271 12.4031C29.0751 12.4031 29.5194 12.8473 29.5194 13.3954V14.8837H31.0078C31.5557 14.8837 32 15.328 32 15.876C32 16.424 31.5557 16.8682 31.0078 16.8682H29.5194V18.3566C29.5194 18.9046 29.0751 19.3488 28.5271 19.3488C27.9792 19.3488 27.5349 18.9046 27.5349 18.3566V16.8682H26.0465C25.4985 16.8682 25.0543 16.424 25.0543 15.876C25.0543 15.328 25.4985 14.8837 26.0465 14.8837H27.5349V13.3954C27.5349 12.8473 27.9792 12.4031 28.5271 12.4031ZM17.1163 0.992249C17.1163 0.444245 16.6721 0 16.1241 0C15.5761 0 15.1318 0.444245 15.1318 0.992249V2.48063H13.6435C13.0954 2.48063 12.6512 2.92486 12.6512 3.47288C12.6512 4.02087 13.0954 4.46513 13.6435 4.46513H15.1318V5.9535C15.1318 6.50149 15.5761 6.94575 16.1241 6.94575C16.6721 6.94575 17.1163 6.50149 17.1163 5.9535V4.46513H18.6047C19.1527 4.46513 19.597 4.02087 19.597 3.47288C19.597 2.92486 19.1527 2.48063 18.6047 2.48063H17.1163V0.992249Z" fill="#334155"/>
</svg>
